<?xml version="1.0" encoding="UTF-8" standalone="no"?>
<!-- Created with Inkscape (http://www.inkscape.org/) -->

<svg
   version="1.1"
   id="svg2"
   width="666.66669"
   height="666.66669"
   viewBox="0 0 666.66669 666.66669"
   xmlns="http://www.w3.org/2000/svg"
   xmlns:svg="http://www.w3.org/2000/svg">
  <defs
     id="defs6">
    <clipPath
       clipPathUnits="userSpaceOnUse"
       id="clipPath24">
      <path
         d="M 0,500 H 500 V 0 H 0 Z"
         id="path22" />
    </clipPath>
  </defs>
  <g
     id="g8"
     transform="matrix(1.3333333,0,0,-1.3333333,0,666.66667)">
    <path
       d="M 0,0 H 500 V 500 H 0 Z"
       style="fill:#71331e;fill-opacity:1;fill-rule:nonzero;stroke:none"
       id="path10" />
    <text
       xml:space="preserve"
       transform="matrix(1,0,0,-1,213.1851,216.4072)"
       style="font-variant:normal;font-weight:normal;font-stretch:normal;font-size:69.6764px;font-family:'Sitka Small';-inkscape-font-specification:SitkaText;writing-mode:lr-tb;fill:#fffab5;fill-opacity:1;fill-rule:nonzero;stroke:none"
       id="text16"><tspan
         x="0 40.342636 85.834358 136.90717 162.68742"
         y="0"
         id="tspan12">FRUIT</tspan><tspan
         x="0 48.843155 98.243721 147.64429 186.80243"
         y="65.704842"
         id="tspan14">GOOSE</tspan></text>
    <g
       id="g18">
      <g
         id="g20"
         clip-path="url(#clipPath24)">
        <g
           id="g26"
           transform="translate(95.4262,208.6529)">
          <path
             d="m 0,0 c 15.129,-4.644 27.091,-3.447 33.492,-2.276 5.734,1.049 11.716,2.143 17.559,6.503 12.097,9.028 13.432,24.474 13.657,28.29 -10.83,1.857 -19.331,0.985 -24.713,0 C 23.701,29.533 11.318,20.992 1.626,14.307 -6.317,8.829 -6.644,7.46 -13.332,3.577 -23.454,-2.3 -32.887,-5.075 -39.345,-6.503 c 6.867,-4.468 15.44,-9.318 25.688,-13.657 9.967,-4.22 19.169,-6.961 26.989,-8.78 0.804,-2.787 1.613,-6.686 1.626,-11.38 0.011,-4.215 -0.624,-7.768 -1.301,-10.406 6.178,0.109 12.356,0.217 18.534,0.325"
             style="fill:none;stroke:#fffab5;stroke-width:4.457;stroke-linecap:butt;stroke-linejoin:miter;stroke-miterlimit:10;stroke-dasharray:none;stroke-opacity:1"
             id="path28" />
        </g>
        <g
           id="g30"
           transform="translate(146.8021,184.2655)">
          <path
             d="m 0,0 c 5.561,1.448 15.393,4.802 24.713,13.007 13.097,11.53 21.656,29.535 20.485,46.823 -0.337,4.98 -3.368,14.05 -9.43,32.192 -3.811,11.407 -5.208,14.174 -6.828,20.81 -3.175,13.003 -3.131,24.161 -2.602,31.541"
             style="fill:none;stroke:#fffab5;stroke-width:4.457;stroke-linecap:butt;stroke-linejoin:miter;stroke-miterlimit:10;stroke-dasharray:none;stroke-opacity:1"
             id="path32" />
        </g>
        <g
           id="g34"
           transform="translate(119.4883,179.7132)">
          <path
             d="m 0,0 c 2.372,-0.257 5.641,-0.353 9.43,0.325 3.044,0.545 5.566,1.437 7.479,2.276 1.253,-3.988 2.508,-9.288 2.926,-15.608 0.441,-6.659 -0.188,-12.338 -0.975,-16.583 9.104,0.217 18.209,0.434 27.313,0.65"
             style="fill:none;stroke:#fffab5;stroke-width:4.457;stroke-linecap:butt;stroke-linejoin:miter;stroke-miterlimit:10;stroke-dasharray:none;stroke-opacity:1"
             id="path36" />
        </g>
        <g
           id="g38"
           transform="translate(174.4412,336.1176)">
          <path
             d="m 0,0 c 2.19,-0.399 7.912,-1.14 14.307,1.626 5.838,2.524 9.105,6.615 10.406,8.454 1.784,0.01 5.302,0.269 9.104,2.276 3.378,1.784 5.452,4.14 6.504,5.528 -2.704,-0.039 -6.659,0.283 -10.731,2.276 -2.952,1.445 -3.649,2.635 -7.804,5.853 -6.219,4.817 -9.329,7.226 -13.332,7.804 -6.393,0.923 -11.744,-2.981 -13.006,-3.902 -6.063,-4.424 -8.229,-11.118 -9.755,-17.234 -4.501,-18.035 -4.329,-34.597 -3.577,-50.075 0.37,-7.625 1.026,-17.957 2.276,-30.24 -4.022,0.023 -9.649,-0.197 -16.258,-1.301 -5.301,-0.885 -19.484,-3.717 -35.443,-13.332 -7.671,-4.621 -7.302,-5.719 -22.111,-16.258 -8.183,-5.823 -15.114,-10.341 -19.835,-13.332 2.27,-2.046 5.285,-4.384 9.104,-6.503 2.569,-1.425 7.887,-3.399 10.04,-4.178"
             style="fill:none;stroke:#fffab5;stroke-width:4.457;stroke-linecap:butt;stroke-linejoin:miter;stroke-miterlimit:10;stroke-dasharray:none;stroke-opacity:1"
             id="path40" />
        </g>
        <g
           id="g42"
           transform="translate(189.182,354.7603)">
          <path
             d="m 0,0 c 0,-1.736 -1.407,-3.143 -3.143,-3.143 -1.736,0 -3.144,1.407 -3.144,3.143 0,1.736 1.408,3.143 3.144,3.143 C -1.407,3.143 0,1.736 0,0"
             style="fill:#fffab5;fill-opacity:1;fill-rule:nonzero;stroke:none"
             id="path44" />
        </g>
        <g
           id="g46"
           transform="translate(212.0719,364.5804)">
          <path
             d="m 0,0 c 2.965,-3.976 8.208,-12.289 8.026,-22.935 -0.03,-1.728 -0.199,-3.351 -0.461,-4.857"
             style="fill:none;stroke:#fffab5;stroke-width:4.457;stroke-linecap:butt;stroke-linejoin:miter;stroke-miterlimit:10;stroke-dasharray:none;stroke-opacity:1"
             id="path48" />
        </g>
        <g
           id="g50"
           transform="translate(220.3256,334.5889)">
          <path
             d="M 0,0 C -0.853,1.214 1.094,4.032 2.36,5.39 5.708,8.983 10.545,9.072 11.892,9.052 11.886,7.911 11.711,5.277 9.884,3.014 6.932,-0.643 1.095,-1.56 0,0 Z"
             style="fill:none;stroke:#fffab5;stroke-width:4.457;stroke-linecap:butt;stroke-linejoin:miter;stroke-miterlimit:10;stroke-dasharray:none;stroke-opacity:1"
             id="path52" />
        </g>
        <g
           id="g54"
           transform="translate(220.2836,333.656)">
          <path
             d="m 0,0 c 0.382,1.429 -2.405,3.4 -4.055,4.238 -4.364,2.216 -8.922,0.643 -10.176,0.163 0.395,-1.065 1.462,-3.472 3.947,-4.964 C -6.269,-2.975 -0.491,-1.835 0,0 Z"
             style="fill:none;stroke:#fffab5;stroke-width:4.457;stroke-linecap:butt;stroke-linejoin:miter;stroke-miterlimit:10;stroke-dasharray:none;stroke-opacity:1"
             id="path56" />
        </g>
        <g
           id="g58"
           transform="translate(202.047,319.3304)">
          <path
             d="m 0,0 c -3.627,-13.181 13.514,-35.73 25.645,-33.735 5.185,0.853 8.475,6.029 11.168,10.266 4.651,7.317 10.291,21.798 5.455,29.785 C 34.953,18.393 4.104,14.915 0,0 Z"
             style="fill:none;stroke:#fffab5;stroke-width:4.457;stroke-linecap:butt;stroke-linejoin:miter;stroke-miterlimit:10;stroke-dasharray:none;stroke-opacity:1"
             id="path60" />
        </g>
        <g
           id="g62"
           transform="translate(213.6879,314.2708)">
          <path
             d="m 0,0 c 0,-1.661 -2.286,-3.008 -2.286,-3.008 0,0 -2.286,1.347 -2.286,3.008 0,1.661 1.023,2.357 2.286,2.357 C -1.024,2.357 0,1.661 0,0"
             style="fill:#fffab5;fill-opacity:1;fill-rule:nonzero;stroke:none"
             id="path64" />
        </g>
        <g
           id="g66"
           transform="translate(223.8598,320.6657)">
          <path
             d="m 0,0 c 0,-1.661 -2.286,-3.008 -2.286,-3.008 0,0 -2.286,1.347 -2.286,3.008 0,1.661 1.023,2.357 2.286,2.357 C -1.024,2.357 0,1.661 0,0"
             style="fill:#fffab5;fill-opacity:1;fill-rule:nonzero;stroke:none"
             id="path68" />
        </g>
        <g
           id="g70"
           transform="translate(223.8598,299.5909)">
          <path
             d="m 0,0 c 0,-1.661 -2.286,-3.008 -2.286,-3.008 0,0 -2.286,1.347 -2.286,3.008 0,1.661 1.023,2.357 2.286,2.357 C -1.024,2.357 0,1.661 0,0"
             style="fill:#fffab5;fill-opacity:1;fill-rule:nonzero;stroke:none"
             id="path72" />
        </g>
        <g
           id="g74"
           transform="translate(238.2755,316.9532)">
          <path
             d="m 0,0 c 0,-1.661 -2.286,-3.008 -2.286,-3.008 0,0 -2.286,1.347 -2.286,3.008 0,1.661 1.023,2.357 2.286,2.357 C -1.024,2.357 0,1.661 0,0"
             style="fill:#fffab5;fill-opacity:1;fill-rule:nonzero;stroke:none"
             id="path76" />
        </g>
        <g
           id="g78"
           transform="translate(232.2177,308.1737)">
          <path
             d="m 0,0 c 0,-1.661 -2.286,-3.008 -2.286,-3.008 0,0 -2.286,1.347 -2.286,3.008 0,1.661 1.023,2.357 2.286,2.357 C -1.024,2.357 0,1.661 0,0"
             style="fill:#fffab5;fill-opacity:1;fill-rule:nonzero;stroke:none"
             id="path80" />
        </g>
      </g>
    </g>
  </g>
</svg>
