<?xml version="1.0" encoding="UTF-8" standalone="no"?>
<!-- Created with Inkscape (http://www.inkscape.org/) -->

<svg
   version="1.1"
   id="svg2"
   width="666.66669"
   height="666.66669"
   viewBox="0 0 666.66669 666.66669"
   xmlns="http://www.w3.org/2000/svg"
   xmlns:svg="http://www.w3.org/2000/svg">
  <defs
     id="defs6">
    <clipPath
       clipPathUnits="userSpaceOnUse"
       id="clipPath22">
      <path
         d="M 0,500 H 500 V 0 H 0 Z"
         id="path20" />
    </clipPath>
  </defs>
  <g
     id="g8"
     transform="matrix(1.3333333,0,0,-1.3333333,0,666.66667)">
    <path
       d="M 0,0 H 500 V 500 H 0 Z"
       style="fill:#71331e;fill-opacity:1;fill-rule:nonzero;stroke:none"
       id="path10" />
    <text
       xml:space="preserve"
       transform="matrix(1,0,0,-1,74.2939,114.1084)"
       style="font-variant:normal;font-weight:normal;font-stretch:normal;font-size:53.5952px;font-family:'Sitka Small';-inkscape-font-specification:SitkaText;writing-mode:lr-tb;fill:#fffab5;fill-opacity:1;fill-rule:nonzero;stroke:none"
       id="text14"><tspan
         x="0 31.03162 66.023926 105.30921 125.13943 158.69003 173.96466 211.5349 249.53389 287.5329 317.65338"
         y="0"
         id="tspan12">FRUIT GOOSE</tspan></text>
    <g
       id="g16">
      <g
         id="g18"
         clip-path="url(#clipPath22)">
        <g
           id="g24"
           transform="translate(192.7715,236.2586)">
          <path
             d="m 0,0 c 15.522,-4.764 27.795,-3.537 34.362,-2.335 5.883,1.076 12.021,2.198 18.015,6.672 12.412,9.263 13.781,25.11 14.012,29.024 -11.111,1.906 -19.833,1.011 -25.355,0 C 24.317,30.301 11.612,21.537 1.668,14.679 -6.481,9.058 -6.817,7.653 -13.678,3.67 -24.064,-2.36 -33.741,-5.206 -40.367,-6.672 c 7.045,-4.584 15.841,-9.56 26.355,-14.012 10.226,-4.329 19.667,-7.141 27.69,-9.008 0.825,-2.859 1.656,-6.86 1.668,-11.676 0.011,-4.325 -0.64,-7.969 -1.334,-10.676 6.338,0.111 12.677,0.223 19.016,0.334"
             style="fill:none;stroke:#fffab5;stroke-width:4.573;stroke-linecap:butt;stroke-linejoin:miter;stroke-miterlimit:10;stroke-dasharray:none;stroke-opacity:1"
             id="path26" />
        </g>
        <g
           id="g28"
           transform="translate(245.4824,211.2375)">
          <path
             d="m 0,0 c 5.705,1.485 15.793,4.927 25.355,13.345 13.437,11.829 22.219,30.302 21.017,48.04 -0.346,5.109 -3.455,14.415 -9.674,33.028 -3.911,11.704 -5.344,14.543 -7.006,21.351 -3.257,13.34 -3.212,24.789 -2.669,32.361"
             style="fill:none;stroke:#fffab5;stroke-width:4.573;stroke-linecap:butt;stroke-linejoin:miter;stroke-miterlimit:10;stroke-dasharray:none;stroke-opacity:1"
             id="path30" />
        </g>
        <g
           id="g32"
           transform="translate(217.4589,206.5669)">
          <path
             d="m 0,0 c 2.434,-0.263 5.787,-0.363 9.675,0.334 3.123,0.559 5.711,1.474 7.673,2.335 1.286,-4.092 2.574,-9.53 3.002,-16.014 0.452,-6.832 -0.192,-12.658 -1,-17.014 9.341,0.223 18.682,0.445 28.023,0.667"
             style="fill:none;stroke:#fffab5;stroke-width:4.573;stroke-linecap:butt;stroke-linejoin:miter;stroke-miterlimit:10;stroke-dasharray:none;stroke-opacity:1"
             id="path34" />
        </g>
        <g
           id="g36"
           transform="translate(273.8396,367.0353)">
          <path
             d="m 0,0 c 2.247,-0.409 8.117,-1.169 14.679,1.668 5.99,2.59 9.341,6.787 10.676,8.674 1.831,0.01 5.44,0.276 9.341,2.335 3.466,1.83 5.593,4.248 6.672,5.672 -2.774,-0.04 -6.832,0.29 -11.009,2.335 -3.028,1.483 -3.744,2.704 -8.007,6.005 -6.381,4.943 -9.571,7.414 -13.678,8.007 -6.56,0.947 -12.05,-3.059 -13.345,-4.004 -6.22,-4.538 -8.442,-11.406 -10.008,-17.681 -4.618,-18.504 -4.441,-35.497 -3.67,-51.377 0.38,-7.822 1.053,-18.423 2.336,-31.026 -4.127,0.024 -9.9,-0.202 -16.681,-1.334 -5.439,-0.908 -19.99,-3.814 -36.364,-13.678 -7.87,-4.742 -7.492,-5.868 -22.686,-16.681 -8.395,-5.975 -15.506,-10.609 -20.35,-13.678 2.329,-2.1 5.422,-4.498 9.341,-6.673 2.635,-1.462 8.091,-3.487 10.3,-4.286"
             style="fill:none;stroke:#fffab5;stroke-width:4.573;stroke-linecap:butt;stroke-linejoin:miter;stroke-miterlimit:10;stroke-dasharray:none;stroke-opacity:1"
             id="path38" />
        </g>
        <g
           id="g40"
           transform="translate(288.9635,386.1625)">
          <path
             d="m 0,0 c 0,-1.781 -1.444,-3.225 -3.225,-3.225 -1.781,0 -3.225,1.444 -3.225,3.225 0,1.781 1.444,3.225 3.225,3.225 C -1.444,3.225 0,1.781 0,0"
             style="fill:#fffab5;fill-opacity:1;fill-rule:nonzero;stroke:none"
             id="path42" />
        </g>
        <g
           id="g44"
           transform="translate(312.4482,396.2377)">
          <path
             d="M 0,0 C 3.042,-4.08 8.421,-12.608 8.234,-23.531 8.204,-25.304 8.03,-26.969 7.762,-28.515"
             style="fill:none;stroke:#fffab5;stroke-width:4.573;stroke-linecap:butt;stroke-linejoin:miter;stroke-miterlimit:10;stroke-dasharray:none;stroke-opacity:1"
             id="path46" />
        </g>
        <g
           id="g48"
           transform="translate(320.9164,365.4669)">
          <path
             d="m 0,0 c -0.875,1.246 1.123,4.137 2.421,5.53 3.435,3.686 8.398,3.778 9.78,3.757 C 12.195,8.117 12.015,5.414 10.141,3.092 7.112,-0.659 1.124,-1.601 0,0 Z"
             style="fill:none;stroke:#fffab5;stroke-width:4.573;stroke-linecap:butt;stroke-linejoin:miter;stroke-miterlimit:10;stroke-dasharray:none;stroke-opacity:1"
             id="path50" />
        </g>
        <g
           id="g52"
           transform="translate(320.8732,364.5098)">
          <path
             d="m 0,0 c 0.392,1.466 -2.468,3.488 -4.16,4.348 -4.478,2.274 -9.154,0.66 -10.441,0.168 0.406,-1.094 1.5,-3.562 4.05,-5.094 C -6.431,-3.052 -0.504,-1.883 0,0 Z"
             style="fill:none;stroke:#fffab5;stroke-width:4.573;stroke-linecap:butt;stroke-linejoin:miter;stroke-miterlimit:10;stroke-dasharray:none;stroke-opacity:1"
             id="path54" />
        </g>
        <g
           id="g56"
           transform="translate(302.1628,349.812)">
          <path
             d="m 0,0 c -3.721,-13.524 13.865,-36.658 26.311,-34.611 5.32,0.875 8.695,6.185 11.458,10.532 4.772,7.508 10.559,22.365 5.597,30.559 C 35.862,18.871 4.211,15.303 0,0 Z"
             style="fill:none;stroke:#fffab5;stroke-width:4.573;stroke-linecap:butt;stroke-linejoin:miter;stroke-miterlimit:10;stroke-dasharray:none;stroke-opacity:1"
             id="path58" />
        </g>
        <g
           id="g60"
           transform="translate(314.1061,344.6208)">
          <path
             d="m 0,0 c 0,-1.704 -2.346,-3.086 -2.346,-3.086 0,0 -2.345,1.382 -2.345,3.086 0,1.704 1.05,2.418 2.345,2.418 C -1.05,2.418 0,1.704 0,0"
             style="fill:#fffab5;fill-opacity:1;fill-rule:nonzero;stroke:none"
             id="path62" />
        </g>
        <g
           id="g64"
           transform="translate(324.5424,351.1819)">
          <path
             d="m 0,0 c 0,-1.704 -2.346,-3.086 -2.346,-3.086 0,0 -2.345,1.382 -2.345,3.086 0,1.704 1.05,2.418 2.345,2.418 C -1.05,2.418 0,1.704 0,0"
             style="fill:#fffab5;fill-opacity:1;fill-rule:nonzero;stroke:none"
             id="path66" />
        </g>
        <g
           id="g68"
           transform="translate(324.5424,329.5595)">
          <path
             d="m 0,0 c 0,-1.704 -2.346,-3.086 -2.346,-3.086 0,0 -2.345,1.382 -2.345,3.086 0,1.704 1.05,2.418 2.345,2.418 C -1.05,2.418 0,1.704 0,0"
             style="fill:#fffab5;fill-opacity:1;fill-rule:nonzero;stroke:none"
             id="path70" />
        </g>
        <g
           id="g72"
           transform="translate(339.3326,347.3729)">
          <path
             d="m 0,0 c 0,-1.704 -2.346,-3.086 -2.346,-3.086 0,0 -2.345,1.382 -2.345,3.086 0,1.704 1.05,2.418 2.345,2.418 C -1.05,2.418 0,1.704 0,0"
             style="fill:#fffab5;fill-opacity:1;fill-rule:nonzero;stroke:none"
             id="path74" />
        </g>
        <g
           id="g76"
           transform="translate(333.1174,338.3654)">
          <path
             d="m 0,0 c 0,-1.704 -2.346,-3.086 -2.346,-3.086 0,0 -2.345,1.382 -2.345,3.086 0,1.704 1.05,2.418 2.345,2.418 C -1.05,2.418 0,1.704 0,0"
             style="fill:#fffab5;fill-opacity:1;fill-rule:nonzero;stroke:none"
             id="path78" />
        </g>
      </g>
    </g>
  </g>
</svg>
