<?xml version="1.0" encoding="UTF-8" standalone="no"?>
<!-- Created with Inkscape (http://www.inkscape.org/) -->

<svg
   version="1.1"
   id="svg2"
   width="666.66669"
   height="666.66669"
   viewBox="0 0 666.66669 666.66669"
   xmlns="http://www.w3.org/2000/svg"
   xmlns:svg="http://www.w3.org/2000/svg">
  <defs
     id="defs6">
    <clipPath
       clipPathUnits="userSpaceOnUse"
       id="clipPath16">
      <path
         d="M 0,500 H 500 V 0 H 0 Z"
         id="path14" />
    </clipPath>
  </defs>
  <g
     id="g8"
     transform="matrix(1.3333333,0,0,-1.3333333,0,666.66667)">
    <g
       id="g10">
      <g
         id="g12"
         clip-path="url(#clipPath16)">
        <g
           id="g18"
           transform="translate(165.6916,172.127)">
          <path
             d="m 0,0 c 22.901,-7.029 41.007,-5.218 50.696,-3.445 8.679,1.587 17.735,3.244 26.579,9.844 18.311,13.665 20.331,37.045 20.672,42.821 -16.393,2.811 -29.261,1.491 -37.407,0 C 35.875,44.704 17.131,31.775 2.461,21.657 -9.561,13.364 -10.057,11.291 -20.18,5.414 -35.502,-3.482 -49.78,-7.681 -59.556,-9.844 c 10.395,-6.762 23.371,-14.105 38.884,-20.672 15.086,-6.387 29.015,-10.536 40.852,-13.289 1.217,-4.22 2.442,-10.122 2.461,-17.227 0.017,-6.38 -0.944,-11.757 -1.969,-15.75 9.352,0.164 18.704,0.328 28.055,0.492"
             style="fill:none;stroke:#fffab5;stroke-width:6.747;stroke-linecap:butt;stroke-linejoin:miter;stroke-miterlimit:10;stroke-dasharray:none;stroke-opacity:1"
             id="path20" />
        </g>
        <g
           id="g22"
           transform="translate(243.4583,135.2123)">
          <path
             d="m 0,0 c 8.417,2.191 23.3,7.269 37.407,19.688 19.824,17.453 32.78,44.707 31.008,70.876 -0.51,7.537 -5.098,21.267 -14.273,48.727 -5.77,17.267 -7.884,21.456 -10.336,31.501 -4.806,19.681 -4.74,36.571 -3.938,47.743"
             style="fill:none;stroke:#fffab5;stroke-width:6.747;stroke-linecap:butt;stroke-linejoin:miter;stroke-miterlimit:10;stroke-dasharray:none;stroke-opacity:1"
             id="path24" />
        </g>
        <g
           id="g26"
           transform="translate(202.114,128.3216)">
          <path
             d="m 0,0 c 3.591,-0.388 8.538,-0.535 14.274,0.492 4.608,0.825 8.425,2.176 11.32,3.446 1.898,-6.037 3.797,-14.06 4.43,-23.626 0.667,-10.08 -0.284,-18.676 -1.477,-25.102 13.782,0.328 27.563,0.657 41.345,0.985"
             style="fill:none;stroke:#fffab5;stroke-width:6.747;stroke-linecap:butt;stroke-linejoin:miter;stroke-miterlimit:10;stroke-dasharray:none;stroke-opacity:1"
             id="path28" />
        </g>
        <g
           id="g30"
           transform="translate(285.2949,365.0676)">
          <path
             d="m 0,0 c 3.315,-0.604 11.976,-1.725 21.657,2.461 8.836,3.821 13.781,10.013 15.75,12.797 2.701,0.015 8.026,0.407 13.781,3.445 5.114,2.7 8.252,6.267 9.844,8.368 -4.092,-0.06 -10.079,0.428 -16.242,3.445 -4.468,2.187 -5.524,3.989 -11.813,8.86 -9.414,7.291 -14.121,10.937 -20.18,11.812 -9.678,1.398 -17.777,-4.512 -19.688,-5.906 -9.177,-6.696 -12.455,-16.829 -14.766,-26.086 -6.812,-27.3 -6.552,-52.37 -5.414,-75.798 0.561,-11.542 1.554,-27.182 3.446,-45.775 -6.088,0.035 -14.606,-0.298 -24.61,-1.968 -8.024,-1.34 -29.492,-5.627 -53.649,-20.18 -11.612,-6.996 -11.053,-8.657 -33.47,-24.61 -12.386,-8.815 -22.877,-15.652 -30.024,-20.18 3.438,-3.098 8,-6.636 13.782,-9.844 3.888,-2.157 11.937,-5.145 15.197,-6.324"
             style="fill:none;stroke:#fffab5;stroke-width:6.747;stroke-linecap:butt;stroke-linejoin:miter;stroke-miterlimit:10;stroke-dasharray:none;stroke-opacity:1"
             id="path32" />
        </g>
        <g
           id="g34"
           transform="translate(307.6078,393.2867)">
          <path
             d="m 0,0 c 0,-2.628 -2.13,-4.758 -4.758,-4.758 -2.628,0 -4.758,2.13 -4.758,4.758 0,2.628 2.13,4.758 4.758,4.758 C -2.13,4.758 0,2.628 0,0"
             style="fill:#fffab5;fill-opacity:1;fill-rule:nonzero;stroke:none"
             id="path36" />
        </g>
        <g
           id="g38"
           transform="translate(342.2558,408.1511)">
          <path
             d="m 0,0 c 4.488,-6.019 12.424,-18.602 12.149,-34.716 -0.045,-2.617 -0.302,-5.073 -0.697,-7.353"
             style="fill:none;stroke:#fffab5;stroke-width:6.747;stroke-linecap:butt;stroke-linejoin:miter;stroke-miterlimit:10;stroke-dasharray:none;stroke-opacity:1"
             id="path40" />
        </g>
        <g
           id="g42"
           transform="translate(354.7492,362.7536)">
          <path
             d="M 0,0 C -1.291,1.838 1.656,6.103 3.572,8.159 8.64,13.597 15.961,13.732 18.001,13.702 17.992,11.975 17.727,7.987 14.961,4.562 10.492,-0.973 1.658,-2.361 0,0 Z"
             style="fill:none;stroke:#fffab5;stroke-width:6.747;stroke-linecap:butt;stroke-linejoin:miter;stroke-miterlimit:10;stroke-dasharray:none;stroke-opacity:1"
             id="path44" />
        </g>
        <g
           id="g46"
           transform="translate(354.6856,361.3416)">
          <path
             d="m 0,0 c 0.579,2.162 -3.641,5.146 -6.137,6.414 -6.606,3.356 -13.506,0.975 -15.405,0.248 0.599,-1.613 2.213,-5.255 5.975,-7.515 C -9.489,-4.503 -0.744,-2.778 0,0 Z"
             style="fill:none;stroke:#fffab5;stroke-width:6.747;stroke-linecap:butt;stroke-linejoin:miter;stroke-miterlimit:10;stroke-dasharray:none;stroke-opacity:1"
             id="path48" />
        </g>
        <g
           id="g50"
           transform="translate(327.0812,339.6572)">
          <path
             d="m 0,0 c -5.49,-19.952 20.456,-54.083 38.818,-51.064 7.849,1.291 12.829,9.126 16.904,15.539 7.041,11.077 15.579,32.996 8.257,45.085 C 52.908,27.841 6.212,22.577 0,0 Z"
             style="fill:none;stroke:#fffab5;stroke-width:6.747;stroke-linecap:butt;stroke-linejoin:miter;stroke-miterlimit:10;stroke-dasharray:none;stroke-opacity:1"
             id="path52" />
        </g>
        <g
           id="g54"
           transform="translate(344.7019,331.9985)">
          <path
             d="m 0,0 c 0,-2.514 -3.461,-4.553 -3.461,-4.553 0,0 -3.46,2.039 -3.46,4.553 0,2.514 1.549,3.568 3.46,3.568 C -1.549,3.568 0,2.514 0,0"
             style="fill:#fffab5;fill-opacity:1;fill-rule:nonzero;stroke:none"
             id="path56" />
        </g>
        <g
           id="g58"
           transform="translate(360.0989,341.6783)">
          <path
             d="m 0,0 c 0,-2.514 -3.461,-4.553 -3.461,-4.553 0,0 -3.46,2.039 -3.46,4.553 0,2.514 1.549,3.568 3.46,3.568 C -1.549,3.568 0,2.514 0,0"
             style="fill:#fffab5;fill-opacity:1;fill-rule:nonzero;stroke:none"
             id="path60" />
        </g>
        <g
           id="g62"
           transform="translate(360.0989,309.778)">
          <path
             d="m 0,0 c 0,-2.514 -3.461,-4.553 -3.461,-4.553 0,0 -3.46,2.039 -3.46,4.553 0,2.514 1.549,3.568 3.46,3.568 C -1.549,3.568 0,2.514 0,0"
             style="fill:#fffab5;fill-opacity:1;fill-rule:nonzero;stroke:none"
             id="path64" />
        </g>
        <g
           id="g66"
           transform="translate(381.9196,336.0588)">
          <path
             d="m 0,0 c 0,-2.514 -3.461,-4.553 -3.461,-4.553 0,0 -3.46,2.039 -3.46,4.553 0,2.514 1.549,3.568 3.46,3.568 C -1.549,3.568 0,2.514 0,0"
             style="fill:#fffab5;fill-opacity:1;fill-rule:nonzero;stroke:none"
             id="path68" />
        </g>
        <g
           id="g70"
           transform="translate(372.75,322.7695)">
          <path
             d="m 0,0 c 0,-2.514 -3.461,-4.553 -3.461,-4.553 0,0 -3.46,2.039 -3.46,4.553 0,2.514 1.549,3.568 3.46,3.568 C -1.549,3.568 0,2.514 0,0"
             style="fill:#fffab5;fill-opacity:1;fill-rule:nonzero;stroke:none"
             id="path72" />
        </g>
      </g>
    </g>
  </g>
</svg>
